<?xml version="1.0" encoding="UTF-8"?>
<svg version="1.1" xmlns="http://www.w3.org/2000/svg" width="165" height="40">
<path d="M0 0 C54.45 0 108.9 0 165 0 C165 13.2 165 26.4 165 40 C110.55 40 56.1 40 0 40 C0 26.8 0 13.6 0 0 Z " fill="#B0B2B4" transform="translate(0,0)"/>
<path d="M0 0 C54.45 0 108.9 0 165 0 C165 13.2 165 26.4 165 40 C110.55 40 56.1 40 0 40 C0 26.8 0 13.6 0 0 Z M3 3 C3 13.23 3 23.46 3 34 C55.47 34 107.94 34 162 34 C162 23.77 162 13.54 162 3 C109.53 3 57.06 3 3 3 Z " fill="#1D1D1E" transform="translate(0,0)"/>
<path d="M0 0 C52.47 0 104.94 0 159 0 C159 10.23 159 20.46 159 31 C106.53 31 54.06 31 0 31 C0 20.77 0 10.54 0 0 Z M2 2 C2 10.91 2 19.82 2 29 C53.15 29 104.3 29 157 29 C157 20.09 157 11.18 157 2 C105.85 2 54.7 2 2 2 Z " fill="#E8E8E8" transform="translate(3,3)"/>
<path d="M0 0 C52.47 0 104.94 0 159 0 C159 0.99 159 1.98 159 3 C106.53 3 54.06 3 0 3 C0 2.01 0 1.02 0 0 Z " fill="#404042" transform="translate(3,34)"/>
</svg>
