<?xml version="1.0" encoding="UTF-8"?>
<svg version="1.1" xmlns="http://www.w3.org/2000/svg" width="165" height="40">
<path d="M0 0 C54.45 0 108.9 0 165 0 C165 13.2 165 26.4 165 40 C110.55 40 56.1 40 0 40 C0 26.8 0 13.6 0 0 Z " fill="#A8AAAE" transform="translate(0,0)"/>
<path d="M0 0 C54.45 0 108.9 0 165 0 C165 13.2 165 26.4 165 40 C110.55 40 56.1 40 0 40 C0 26.8 0 13.6 0 0 Z M3 5 C3 14.57 3 24.14 3 34 C55.47 34 107.94 34 162 34 C162 24.43 162 14.86 162 5 C109.53 5 57.06 5 3 5 Z " fill="#1B1B1C" transform="translate(0,0)"/>
<path d="M0 0 C52.47 0 104.94 0 159 0 C159 9.57 159 19.14 159 29 C106.53 29 54.06 29 0 29 C0 19.43 0 9.86 0 0 Z M2 2 C2 10.25 2 18.5 2 27 C53.15 27 104.3 27 157 27 C157 18.75 157 10.5 157 2 C105.85 2 54.7 2 2 2 Z " fill="#E0E2E2" transform="translate(3,5)"/>
<path d="M0 0 C52.47 0 104.94 0 159 0 C159 0.99 159 1.98 159 3 C106.53 3 54.06 3 0 3 C0 2.01 0 1.02 0 0 Z " fill="#38383A" transform="translate(3,34)"/>
</svg>
